HIERARCHY
ROOT hip
{
	OFFSET 0.000000 0.000000 0.000000 
	CHANNELS 6 Xposition Yposition Zposition Xrotation Zrotation Yrotation
	JOINT abdomen
	{
		OFFSET 0.000000 3.402643 0.000000 
		CHANNELS 3 Xrotation Zrotation Yrotation
		JOINT chest
		{
			OFFSET 0.000000 8.438565 -0.680529 
			CHANNELS 3 Xrotation Zrotation Yrotation
			JOINT neck
			{
				OFFSET 0.000000 10.207942 -0.272212 
				CHANNELS 3 Xrotation Zrotation Yrotation
				JOINT head
				{
					OFFSET 0.000000 3.130431 0.000000 
					CHANNELS 3 Xrotation Zrotation Yrotation
					End Site
					{
						OFFSET 0.000000 3.130435 0.000000 
					}
				}
			}
			JOINT lCollar
			{
				OFFSET 3.470700 6.669187 -0.816635 
				CHANNELS 3 Yrotation Zrotation Xrotation
				JOINT lShldr
				{
					OFFSET 3.198488 0.000000 0.000000 
					CHANNELS 3 Zrotation Yrotation Xrotation
					JOINT lForeArm
					{
						OFFSET 10.139888 0.000000 0.000000 
						CHANNELS 3 Yrotation Zrotation Xrotation
						JOINT lHand
						{
							OFFSET 8.370511 0.000000 0.000000 
							CHANNELS 3 Zrotation Yrotation Xrotation
							End Site
							{
								OFFSET 4.083176 0.000000 0.000000 
							}
						}
					}
				}
			}
			JOINT rCollar
			{
				OFFSET -3.470700 6.669187 -0.816635 
				CHANNELS 3 Yrotation Zrotation Xrotation
				JOINT rShldr
				{
					OFFSET -3.198488 0.000000 0.000000 
					CHANNELS 3 Zrotation Yrotation Xrotation
					JOINT rForeArm
					{
						OFFSET -10.139888 0.000000 0.000000 
						CHANNELS 3 Yrotation Zrotation Xrotation
						JOINT rHand
						{
							OFFSET -8.370511 0.000000 0.000000 
							CHANNELS 3 Zrotation Yrotation Xrotation
							End Site
							{
								OFFSET -4.083176 0.000000 0.000000 
							}
						}
					}
				}
			}
		}
	}
	JOINT lThigh
	{
		OFFSET 5.308129 -1.633274 1.361059 
		CHANNELS 3 Xrotation Zrotation Yrotation
		JOINT lShin
		{
			OFFSET -2.041588 -20.007561 0.000000 
			CHANNELS 3 Xrotation Zrotation Yrotation
			JOINT lFoot
			{
				OFFSET 0.000000 -19.190928 -1.224953 
				CHANNELS 3 Xrotation Yrotation Zrotation
				End Site
				{
					OFFSET 0.000000 -2.449906 4.627600 
				}
			}
		}
	}
	JOINT rThigh
	{
		OFFSET -5.308129 -1.633274 1.361059 
		CHANNELS 3 Xrotation Zrotation Yrotation
		JOINT rShin
		{
			OFFSET 2.041588 -20.007561 0.000000 
			CHANNELS 3 Xrotation Zrotation Yrotation
			JOINT rFoot
			{
				OFFSET 0.000000 -19.190928 -1.224953 
				CHANNELS 3 Xrotation Yrotation Zrotation
				End Site
				{
					OFFSET 0.000000 -2.449906 4.627600 
				}
			}
		}
	}
}
MOTION
Frames: 15
Frame Time: 0.016667
-0.001757 39.167599 -0.087453 15.665800 -0.846263 -19.895599 -25.884300 1.955160 13.275900 15.544100 -5.399320 6.673770 5.190220 3.536750 -2.494320 8.533460 5.968280 -0.758790 2.000000 -2.000000 0.000000 -71.892097 43.510899 116.899002 11.640800 -0.348751 0.027647 0.047614 0.021025 -125.857002 -2.000000 2.000000 0.000000 66.136497 26.673000 -168.914001 -57.539600 0.288227 0.115361 -0.080774 0.071085 -163.220993 -60.603531 7.966484 4.481233 56.834286 1.021086 3.974609 -10.071762 7.613211 0.768506 7.579140 2.770746 10.269775 34.979179 -5.033285 -2.077523 33.113026 1.787269 2.628017 
0.014510 39.806198 2.856377 16.774000 -1.561500 -17.433599 -24.703300 2.642570 11.938400 17.231800 -2.983260 6.081200 4.421480 2.896280 -2.727470 8.396000 5.969670 -0.890195 2.000000 -2.000000 0.000000 -76.061401 34.464100 113.140999 11.269700 -0.348927 0.026780 0.050020 0.031470 -122.028999 -2.000000 2.000000 0.000000 66.843697 21.139000 -170.240005 -56.514198 0.290280 0.114029 -0.078525 0.066341 -161.345993 -58.335388 6.179193 4.218972 57.310097 0.889953 4.042465 -13.049841 5.482247 0.352364 4.769679 4.634105 9.186523 37.812531 -4.153112 -2.296819 22.762959 4.726793 0.840321 
0.040482 40.658283 5.875266 17.401899 -1.845160 -15.421900 -23.598301 3.100080 10.785100 18.730301 -0.868699 5.594100 3.901830 2.521870 -2.792590 8.317750 5.999660 -0.935202 2.000000 -2.000000 0.000000 -79.050797 24.326500 112.177002 10.722800 -0.349176 0.025499 0.052465 0.039757 -118.943001 -2.000000 2.000000 0.000000 68.606903 15.184800 -171.464996 -54.395000 0.294445 0.111162 -0.076517 0.061728 -159.548996 -54.775139 4.380919 4.552611 56.481945 0.835759 4.066863 -15.653482 3.564050 -0.194682 1.154972 5.894389 7.783647 41.858620 -3.418540 -2.641862 11.201959 6.624060 0.316780 
0.072476 41.560505 7.958444 16.976999 -1.279610 -14.853600 -23.999901 2.548740 10.385500 17.597099 -1.141050 5.332410 4.542930 3.048440 -2.448800 8.445990 6.056800 -0.751427 2.000000 -2.000000 0.000000 -80.087303 18.014200 118.107002 10.634900 -0.349215 0.025293 0.050820 0.044135 -120.955002 -2.000000 2.000000 0.000000 72.656700 9.579540 -171.548004 -51.191898 0.300531 0.106540 -0.075165 0.058381 -158.259995 -50.075176 3.049688 5.839665 53.414165 0.968485 3.941696 -16.390379 2.500983 -0.504797 -2.561338 5.556352 6.656655 46.839825 -2.957518 -2.954984 2.140967 4.446509 0.721273 
0.109764 42.424049 10.016715 16.319401 -0.627938 -14.100000 -24.733900 1.256360 10.000300 16.362499 -2.707580 4.973650 5.292890 4.049740 -2.308410 8.545740 6.201820 -0.660236 2.000000 -2.000000 0.000000 -80.197800 12.512800 130.195999 12.363400 -0.348393 0.029334 0.046613 0.015371 -127.907997 -2.000000 2.000000 0.000000 77.518204 3.319240 -171.330002 -47.393002 0.307402 0.100629 -0.072885 0.052169 -155.895996 -44.948559 1.339718 6.932790 49.550827 1.156240 3.769538 -16.964947 2.301728 -0.614881 -6.243794 5.094287 4.476551 51.474705 -2.521939 -3.246254 -5.056725 0.498398 0.023378 
0.152733 43.202641 12.080671 15.586000 -0.178724 -13.516700 -24.928400 0.734463 9.316170 15.980600 -2.861960 4.574380 5.867190 4.231550 -1.999260 8.614180 6.171890 -0.528233 2.000000 -2.000000 0.000000 -81.639603 6.563610 140.593994 14.013800 -0.347495 0.033168 0.044773 -0.003041 -134.518997 -2.000000 2.000000 0.000000 80.291496 -2.374520 -171.167999 -43.808998 0.313511 0.094646 -0.060598 0.044162 -152.897995 -39.734097 -0.363495 7.351731 45.440876 1.350414 3.568079 -17.065069 2.180325 -0.647962 -9.949913 4.757347 2.958048 54.821274 -2.060194 -3.490798 -11.420740 -1.966606 -1.099090 
0.202965 43.875416 14.160614 14.668200 0.311763 -13.101900 -24.886299 0.551168 8.485530 15.972600 -2.375200 4.145300 6.514050 4.105400 -1.497790 8.731510 6.121960 -0.295015 2.000000 -2.000000 0.000000 -83.682503 0.673246 149.714996 15.947400 -0.346302 0.037625 0.045013 -0.011040 -140.867004 -2.000000 2.000000 0.000000 81.864899 -7.892240 -171.112000 -40.566799 0.318705 0.088915 -0.058109 0.034300 -149.264999 -34.511662 -2.159267 7.319458 41.496368 1.521702 3.362663 -17.019123 2.145831 -0.657189 -13.737091 4.435457 2.007229 57.348282 -1.663610 -3.700909 -16.138813 -3.070843 -2.022153 
0.262035 44.421722 16.266842 13.439700 1.035310 -12.906800 -24.869301 0.258150 7.696580 15.836900 -2.024370 3.721680 7.482680 4.181100 -0.728147 8.958060 6.177850 0.056214 2.000000 -2.000000 0.000000 -85.537201 -4.914940 157.804001 18.525600 -0.344480 0.043500 0.047110 -0.028077 -147.000000 -2.000000 2.000000 0.000000 83.176201 -13.594600 -171.431000 -37.793400 0.322886 0.083785 -0.056002 0.022622 -145.026993 -29.040350 -4.232746 7.112451 37.480709 1.676950 3.118090 -16.753992 2.244403 -0.617956 -17.544012 3.870385 1.505291 58.967812 -1.366370 -3.847721 -18.070843 -2.892750 -2.201743 
0.270844 44.703255 18.331846 12.760700 1.857300 -11.835200 -25.077499 -0.136732 6.299260 15.672600 -1.284380 2.980810 8.133770 3.956100 0.159379 9.045560 6.099020 0.478788 2.000000 -2.000000 0.000000 -86.335403 -10.543600 164.837997 21.211201 -0.342302 0.049525 0.052193 -0.048664 -154.578003 -2.000000 2.000000 0.000000 -96.438904 -161.182999 7.716450 -35.137100 0.326652 0.078688 -0.055254 0.016543 -142.839996 -24.757574 -6.157773 6.705365 34.651283 1.780226 2.930974 -15.879810 1.183257 -1.017112 -22.207531 3.553755 1.226553 59.751938 -1.130184 -3.951243 -19.662674 -0.727763 -1.358252 
0.240007 44.885277 20.382130 12.065500 2.807770 -10.396000 -25.232300 -0.629743 4.643970 15.419800 -0.320971 2.099170 8.600450 3.607650 0.970102 9.103360 6.001080 0.867031 2.000000 -2.000000 0.000000 -86.673897 -15.947400 171.727005 24.424101 -0.339330 0.056591 0.068998 -0.066864 -161.550995 -2.000000 2.000000 0.000000 -96.580101 -156.304001 6.187230 -32.832401 0.329726 0.074128 -0.054936 0.013112 -141.608994 -20.825417 -7.961496 6.317436 32.487259 1.879212 2.778132 -14.205503 -0.404267 -1.485409 -26.759836 3.264101 1.235657 59.603039 -0.978303 -4.018878 -21.144911 1.384975 -0.336693 
0.188339 44.995098 22.433989 11.410300 3.656940 -8.783610 -25.333099 -1.145920 2.792710 15.155800 0.719449 1.123400 8.886080 3.203030 1.840170 9.121780 5.893860 1.279490 2.000000 -2.000000 0.000000 93.632698 -158.666000 -2.309990 27.861601 -0.335716 0.063952 0.076739 -0.081662 -167.516998 -2.000000 2.000000 0.000000 -97.276901 -151.776993 4.183940 -30.801100 0.332281 0.070010 -0.054789 0.011176 -140.916000 -16.998819 -9.484633 5.667382 30.555298 1.989010 2.608585 -12.144512 -2.262996 -1.885201 -31.192774 3.161463 1.597963 58.511063 -0.928408 -4.044266 -22.189991 3.295844 0.728998 
0.134660 45.060074 24.504269 10.859500 4.191430 -7.184280 -25.362400 -1.618890 0.810301 14.929200 1.681320 0.088335 8.994570 2.809290 2.910140 9.091350 5.806640 1.814630 2.000000 -2.000000 0.000000 94.915100 -153.100006 1.843630 31.181999 -0.331813 0.070845 -179.916000 -179.897995 7.961150 -2.000000 2.000000 0.000000 -98.617401 -147.574005 1.893410 -28.994499 0.334430 0.066273 -0.054686 0.009593 -140.350006 -13.023477 -10.583657 4.554307 28.452915 2.113939 2.412728 -10.107498 -4.115655 -2.187013 -35.307117 3.454105 2.305304 55.935631 -1.000674 -3.969107 -22.071327 4.895792 1.628053 
0.084117 45.055683 26.650042 9.953290 4.530670 -5.709110 -25.110300 -2.225980 -0.612701 14.898900 2.001930 -0.686448 9.495160 1.517690 3.249840 9.359390 5.191000 2.029440 2.000000 -2.000000 0.000000 97.835602 -147.003006 4.762840 33.857800 -0.328381 0.076228 -179.921005 -179.901001 5.090030 -2.000000 2.000000 0.000000 -99.624001 -143.108002 -1.228570 -28.994499 0.334430 0.066273 -0.054820 0.011613 -141.072006 -8.236607 -11.189524 4.202820 25.757761 2.337357 2.146329 -7.741703 -5.899938 -2.182655 -38.202129 3.877691 3.446957 51.993320 -1.213490 -3.798538 -21.885088 5.879132 2.125389 
0.041882 44.878830 28.847263 9.302910 4.973120 -4.234940 -24.816799 -2.739850 -1.898540 15.141800 2.381910 -1.387630 10.542900 -0.306139 3.211180 9.938840 4.358920 2.084150 2.000000 -2.000000 0.000000 101.181999 -140.610992 6.609280 35.576500 -0.326046 0.079599 -179.917999 -179.897003 3.049020 -2.000000 2.000000 0.000000 -100.495003 -139.574997 -6.243380 -27.627300 0.335977 0.063400 -0.054840 0.011885 -141.169998 -3.447012 -11.882246 3.672436 22.632589 2.619984 1.827624 -5.716268 -6.958995 -1.983161 -41.185841 3.920766 3.876060 47.958961 -1.459810 -3.583524 -21.371195 5.073326 1.788916 
0.004958 44.557980 31.084255 8.770190 5.434150 -2.677720 -24.499201 -3.172940 -3.276310 15.570200 2.811600 -2.119920 11.160600 -1.930090 3.326490 10.304400 3.685370 2.194950 2.000000 -2.000000 0.000000 105.440002 -134.264008 6.724700 36.435902 -0.324840 0.081257 -179.904999 -179.884003 1.642800 -2.000000 2.000000 0.000000 78.280403 -43.594700 167.987000 -25.947500 0.337783 0.059823 -0.054905 0.012731 -141.473007 1.654419 -12.559042 2.884563 18.934708 3.080317 1.438077 -3.926444 -7.271650 -1.696370 -44.087788 3.673517 4.057674 43.861710 -1.724895 -3.333109 -21.151093 3.175672 1.023942 
